<svg width="40" height="35" viewBox="0 0 40 35" fill="none" xmlns="http://www.w3.org/2000/svg">
<path id="Vector" d="M12.6667 20.0005C17.4167 20.0005 21.0001 16.4172 21.0001 11.6672C21.0001 6.91719 17.4167 3.33385 12.6667 3.33385C7.91675 3.33385 4.33341 6.91719 4.33341 11.6672C4.33341 16.4172 7.91675 20.0005 12.6667 20.0005ZM12.6667 7.50052C15.1209 7.50052 16.8334 9.21302 16.8334 11.6672C16.8334 14.1214 15.1209 15.8339 12.6667 15.8339C10.2126 15.8339 8.50008 14.1214 8.50008 11.6672C8.50008 9.21302 10.2126 7.50052 12.6667 7.50052ZM14.7501 22.0839H10.5834C4.83966 22.0839 0.166748 26.7568 0.166748 32.5005V34.5839H4.33341V32.5005C4.33341 29.0547 7.13758 26.2505 10.5834 26.2505H14.7501C18.1959 26.2505 21.0001 29.0547 21.0001 32.5005V34.5839H25.1667V32.5005C25.1667 26.7568 20.4938 22.0839 14.7501 22.0839ZM34.2584 0.492188L31.3126 3.43802C34.0647 6.19427 35.5834 9.85677 35.5834 13.7505C35.5834 17.6443 34.0647 21.3068 31.3126 24.063L34.2584 27.0089C37.8001 23.4651 39.7501 18.7568 39.7501 13.7505C39.7501 8.74427 37.8001 4.03594 34.2584 0.492188Z" fill="#3B7D79"/>
</svg>
