<svg width="46" height="42" viewBox="0 0 46 42" fill="none" xmlns="http://www.w3.org/2000/svg">
<path id="Vector" d="M44.2158 20.6588L25.3486 1.80139L24.0839 0.536744C23.7958 0.250497 23.4061 0.0898438 23 0.0898438C22.5938 0.0898438 22.2041 0.250497 21.916 0.536744L1.78414 20.6588C1.48888 20.9529 1.25553 21.3032 1.09787 21.689C0.940206 22.0747 0.861423 22.4882 0.866169 22.9049C0.8857 24.6237 2.31636 25.9957 4.03511 25.9957H6.11031V41.899H39.8896V25.9957H42.0087C42.8437 25.9957 43.6298 25.6686 44.2207 25.0778C44.5116 24.7878 44.7421 24.443 44.8988 24.0633C45.0555 23.6836 45.1354 23.2766 45.1337 22.8658C45.1337 22.0358 44.8066 21.2496 44.2158 20.6588ZM25.7343 38.3834H20.2656V28.4225H25.7343V38.3834ZM36.374 22.4801V38.3834H28.8593V27.2506C28.8593 26.1715 27.9853 25.2975 26.9062 25.2975H19.0937C18.0146 25.2975 17.1406 26.1715 17.1406 27.2506V38.3834H9.62593V22.4801H4.93844L23.0048 4.42835L24.1328 5.55628L41.0664 22.4801H36.374Z" fill="#3B7D79"/>
</svg>
