<svg width="50" height="50" viewBox="0 0 50 50" fill="none" xmlns="http://www.w3.org/2000/svg">
<path id="Vector" d="M39.6973 39.0234C37.832 34.4629 33.3496 31.25 28.125 31.25H21.875C16.6504 31.25 12.168 34.4629 10.3027 39.0234C6.82617 35.3711 4.6875 30.4395 4.6875 25C4.6875 13.7793 13.7793 4.6875 25 4.6875C36.2207 4.6875 45.3125 13.7793 45.3125 25C45.3125 30.4395 43.1738 35.3711 39.6973 39.0234ZM35.7812 42.2168C32.6562 44.1797 28.9648 45.3125 25 45.3125C21.0352 45.3125 17.3438 44.1797 14.209 42.2168C14.9219 38.6328 18.0859 35.9375 21.875 35.9375H28.125C31.9141 35.9375 35.0781 38.6328 35.791 42.2168H35.7812ZM25 50C31.6304 50 37.9893 47.3661 42.6777 42.6777C47.3661 37.9893 50 31.6304 50 25C50 18.3696 47.3661 12.0107 42.6777 7.32233C37.9893 2.63392 31.6304 0 25 0C18.3696 0 12.0107 2.63392 7.32233 7.32233C2.63392 12.0107 0 18.3696 0 25C0 31.6304 2.63392 37.9893 7.32233 42.6777C12.0107 47.3661 18.3696 50 25 50ZM25 23.4375C23.964 23.4375 22.9704 23.0259 22.2379 22.2934C21.5053 21.5608 21.0938 20.5673 21.0938 19.5312C21.0938 18.4952 21.5053 17.5017 22.2379 16.7691C22.9704 16.0366 23.964 15.625 25 15.625C26.036 15.625 27.0296 16.0366 27.7621 16.7691C28.4947 17.5017 28.9062 18.4952 28.9062 19.5312C28.9062 20.5673 28.4947 21.5608 27.7621 22.2934C27.0296 23.0259 26.036 23.4375 25 23.4375ZM16.4062 19.5312C16.4062 21.8105 17.3117 23.9963 18.9233 25.608C20.5349 27.2196 22.7208 28.125 25 28.125C27.2792 28.125 29.4651 27.2196 31.0767 25.608C32.6883 23.9963 33.5938 21.8105 33.5938 19.5312C33.5938 17.252 32.6883 15.0662 31.0767 13.4546C29.4651 11.8429 27.2792 10.9375 25 10.9375C22.7208 10.9375 20.5349 11.8429 18.9233 13.4546C17.3117 15.0662 16.4062 17.252 16.4062 19.5312Z" fill="#3B7D79"/>
</svg>
