<svg width="49" height="64" viewBox="0 0 49 64" fill="none" xmlns="http://www.w3.org/2000/svg">
<path id="Vector" d="M21.4375 0V3.04762H9.1875C4.1134 3.04762 0 7.14103 0 12.1905V21.3333C0 29.749 6.85565 36.5714 15.3125 36.5714H33.6875C42.1443 36.5714 49 29.749 49 21.3333V12.1905C49 7.14103 44.8868 3.04762 39.8125 3.04762H27.5625V0H21.4375ZM6.125 12.1905C6.125 10.5073 7.49614 9.14286 9.1875 9.14286H39.8125C41.5039 9.14286 42.875 10.5073 42.875 12.1905V21.3333C42.875 26.3828 38.7618 30.4762 33.6875 30.4762H15.3125C10.2384 30.4762 6.125 26.3828 6.125 21.3333V12.1905ZM16.8438 24.381C19.3807 24.381 21.4375 22.3343 21.4375 19.8095C21.4375 17.2848 19.3807 15.2381 16.8438 15.2381C14.3067 15.2381 12.25 17.2848 12.25 19.8095C12.25 22.3343 14.3067 24.381 16.8438 24.381ZM32.1562 24.381C34.6932 24.381 36.75 22.3343 36.75 19.8095C36.75 17.2848 34.6932 15.2381 32.1562 15.2381C29.6193 15.2381 27.5625 17.2848 27.5625 19.8095C27.5625 22.3343 29.6193 24.381 32.1562 24.381ZM6.125 64C6.125 53.9011 14.3518 45.7143 24.5 45.7143C34.6482 45.7143 42.875 53.9011 42.875 64H49C49 50.5347 38.031 39.619 24.5 39.619C10.969 39.619 0 50.5347 0 64H6.125Z" fill="black"/>
</svg>
